HIERARCHY
ROOT Hips
{
	OFFSET 0.00000 0.00000 0.00000
	CHANNELS 6 Xposition Yposition Zposition Zrotation Yrotation Xrotation 
	JOINT LHipJoint
	{
		OFFSET 0 0 0
		CHANNELS 3 Zrotation Yrotation Xrotation
		JOINT LeftHip
		{
			OFFSET 1.59801 -1.77853 0.57028
			CHANNELS 3 Zrotation Yrotation Xrotation
			JOINT LeftKnee
			{
				OFFSET 2.39439 -6.57854 0.00000
				CHANNELS 3 Zrotation Yrotation Xrotation
				JOINT LeftAnkle
				{
					OFFSET 2.69334 -7.39989 0.00000
					CHANNELS 3 Zrotation Yrotation Xrotation
					JOINT LeftToe
					{
						OFFSET 0.09553 -0.26245 1.73747
						CHANNELS 3 Zrotation Yrotation Xrotation
						End Site
						{
							OFFSET 0.00000 -0.00000 0.89391
						}
					}
				}
			}
		}
	}
	JOINT RHipJoint
	{
		OFFSET 0 0 0
		CHANNELS 3 Zrotation Yrotation Xrotation
		JOINT RightHip
		{
			OFFSET -1.54704 -1.77852 0.57028
			CHANNELS 3 Zrotation Yrotation Xrotation
			JOINT RightKnee
			{
				OFFSET -2.40286 -6.60180 0.00000
				CHANNELS 3 Zrotation Yrotation Xrotation
				JOINT RightAnkle
				{
					OFFSET -2.63873 -7.24984 0.00000
					CHANNELS 3 Zrotation Yrotation Xrotation
					JOINT RightToe
					{
						OFFSET -0.15631 -0.42945 1.84436
						CHANNELS 3 Zrotation Yrotation Xrotation
						End Site
						{
							OFFSET -0.00000 -0.00000 0.95734
						}
					}
				}
			}
		}
	}
	JOINT lowerback
	{
		OFFSET 0 0 0
		CHANNELS 3 Zrotation Yrotation Xrotation
		JOINT Chest
		{
			OFFSET -0.00436 1.89866 -0.04018
			CHANNELS 3 Zrotation Yrotation Xrotation
			JOINT Chest2
			{
				OFFSET 0.02031 1.88273 0.09634
				CHANNELS 3 Zrotation Yrotation Xrotation
				JOINT lowerneck
				{
					OFFSET 0 0 0
					CHANNELS 3 Zrotation Yrotation Xrotation
					JOINT Neck
					{
						OFFSET -0.13105 1.89371 0.23083
						CHANNELS 3 Zrotation Yrotation Xrotation
						JOINT Head
						{
							OFFSET 0.17062 1.83990 -0.54062
							CHANNELS 3 Zrotation Yrotation Xrotation
							End Site
							{
								OFFSET 0.04576 1.94782 -0.21839
							}
						}
					}
				}
				JOINT LeftCollar
				{
					OFFSET 0 0 0
					CHANNELS 3 Zrotation Yrotation Xrotation
					JOINT LeftShoulder
					{
						OFFSET 3.12424 1.09204 0.22226
CHANNELS 3 Zrotation Xrotation Yrotation
						JOINT LeftElbow
						{
OFFSET 0 -5.292770 0.000000
CHANNELS 3 Zrotation Xrotation Yrotation
							JOINT LeftWrist
							{
OFFSET 0 -2.852260 0.000000
CHANNELS 3 Zrotation Xrotation Yrotation
								JOINT lhand
								{
									OFFSET 0 0 0
CHANNELS 3 Zrotation Xrotation Yrotation
									JOINT LFingers
									{
OFFSET 0 -0.602100 0.000000
CHANNELS 3 Zrotation Xrotation Yrotation
										End Site
										{
OFFSET 0 -0.485430 0.000000
										}
									}
								}
								JOINT LThumb
								{
OFFSET 0 0.000000 0.000000
CHANNELS 3 Zrotation Xrotation Yrotation
									End Site
									{
OFFSET 0 -0.492840 0.492840
									}
								}
							}
						}
					}
				}
				JOINT RightCollar
				{
					OFFSET 0 0 0
					CHANNELS 3 Zrotation Yrotation Xrotation
					JOINT RightShoulder
					{
						OFFSET -2.91709 1.01504 0.30199
CHANNELS 3 Zrotation Xrotation Yrotation
						JOINT RightElbow
						{
OFFSET 0 -5.133040 0.000000
CHANNELS 3 Zrotation Xrotation Yrotation
							JOINT RightWrist
							{
OFFSET 0 -2.743050 0.000000
CHANNELS 3 Zrotation Xrotation Yrotation
								JOINT rhand
								{
									OFFSET 0 0 0
CHANNELS 3 Zrotation Xrotation Yrotation
									JOINT RFingers
									{
OFFSET 0 -0.767980 0.000000
CHANNELS 3 Zrotation Xrotation Yrotation
										End Site
										{
OFFSET 0 -0.619160 0.000000
										}
									}
								}
								JOINT RThumb
								{
OFFSET 0 0.000000 0.000000
CHANNELS 3 Zrotation Xrotation Yrotation
									End Site
									{
OFFSET 0 -0.628620 0.628620
									}
								}
							}
						}
					}
				}
			}
		}
	}
}
MOTION
Frames: 9
Frame Time: 0.008333333333333333
0.349363 17.459683 0.591751 -1.065241 0.521144 4.763332 0.000000 0.000000 0.000000 -18.777088 -20.175401 1.610173 0.641820 5.125318 14.266412 0.371926 9.203977 -18.322565 0.772785 -5.612968 -15.665533 0.000000 0.000000 0.000000 0.000000 0.000000 0.000000 0.000000 0.000000 0.000000 0.000000 0.000000 0.000000 0.000000 0.000000 0.000000 -1.441633 0.548846 -1.415130 1.154511 0.755973 -4.127994 1.983564 0.446181 -3.486235 -18.675241 -12.159277 -10.205436 19.078718 -18.037884 19.149127 7.308840 -8.088079 11.488933 0.000000 0.000000 0.000000 -2.690957 0.879747 -17.420775 7.638349 -12.964915 0.869178 -4.776238 26.791113 -22.521204 0.000000 0.000000 0.000000 -7.125000 0.000000 0.000000 -32.736204 49.458442 3.984919 0.000000 0.000000 0.000000 -2.690739 11.100395 25.848093 -13.890904 -22.578583 -2.786101 1.407917 12.755319 -12.124933 0.000000 0.000000 0.000000 7.125000 0.000000 0.000000 19.686119 18.202687 13.364158
0.352590 17.460248 0.580123 -1.163143 0.248744 4.683190 0.000000 0.000000 0.000000 -18.709770 -19.997879 1.586365 0.650071 5.157484 14.358190 0.398596 9.137485 -18.559986 0.689461 -5.308364 -14.790022 0.000000 0.000000 0.000000 0.000000 0.000000 0.000000 0.000000 0.000000 0.000000 0.000000 0.000000 0.000000 0.000000 0.000000 0.000000 -1.344456 0.545352 -1.292906 1.215128 0.752561 -4.125423 1.990468 0.442923 -3.551895 -18.665371 -12.056581 -10.081542 18.988152 -17.872301 19.088813 7.310020 -8.029255 11.391533 0.000000 0.000000 0.000000 -2.732028 1.048076 -18.895143 7.855374 -13.318103 0.918553 -5.040962 25.422735 -23.130168 0.000000 0.000000 0.000000 -7.125000 0.000000 0.000000 -33.341885 49.933653 4.500518 0.000000 0.000000 0.000000 -2.892155 11.255025 29.069244 -14.204799 -23.026749 -2.907721 1.953194 12.493781 -11.623202 0.000000 0.000000 0.000000 7.125000 0.000000 0.000000 20.105827 18.680434 13.459114
0.354252 17.460634 0.569976 -0.986061 0.248552 4.663610 0.000000 0.000000 0.000000 -18.903258 -19.942474 1.598910 0.642305 5.127187 14.271567 0.393477 9.093171 -18.456205 0.682373 -5.281470 -14.713164 0.000000 0.000000 0.000000 0.000000 0.000000 0.000000 0.000000 0.000000 0.000000 0.000000 0.000000 0.000000 0.000000 0.000000 0.000000 -1.515847 0.527108 -1.344761 1.178597 0.726035 -4.054984 2.050203 0.432925 -3.450220 -18.681782 -12.019970 -10.043547 18.928820 -17.788414 19.006237 7.305157 -8.000762 11.328641 0.000000 0.000000 0.000000 -2.735036 1.136368 -20.209265 8.082535 -13.686585 0.971600 -5.460340 24.340625 -23.490938 0.000000 0.000000 0.000000 -7.125000 0.000000 0.000000 -33.937002 50.172155 4.816725 0.000000 0.000000 0.000000 -2.807826 11.152999 30.337072 -14.172679 -22.980964 -2.895140 2.319286 15.047852 -12.411941 0.000000 0.000000 0.000000 7.125000 0.000000 0.000000 20.252823 17.942826 13.927986
0.356097 17.459680 0.564800 -1.040748 0.324501 4.629905 0.000000 0.000000 0.000000 -18.849439 -19.909272 1.599792 0.642239 5.126844 14.270584 0.352472 9.371967 -18.271485 0.898634 -6.039563 -16.899682 0.000000 0.000000 0.000000 0.000000 0.000000 0.000000 0.000000 0.000000 0.000000 0.000000 0.000000 0.000000 0.000000 0.000000 0.000000 -1.533545 0.501405 -1.326036 1.251320 0.693358 -4.069251 2.135573 0.418941 -3.475551 -18.703378 -11.987542 -9.928085 18.815001 -17.721100 18.989629 7.282519 -7.988348 11.272552 0.000000 0.000000 0.000000 -2.827985 1.288353 -21.247057 8.134905 -13.771290 0.983976 -5.238025 23.989365 -23.490062 0.000000 0.000000 0.000000 -7.125000 0.000000 0.000000 -33.741104 50.206352 4.813112 0.000000 0.000000 0.000000 -2.873703 10.931860 29.889418 -14.112007 -22.894518 -2.871536 2.321828 16.328377 -12.201497 0.000000 0.000000 0.000000 7.125000 0.000000 0.000000 20.279419 18.140475 13.853492
0.357984 17.460458 0.560236 -0.911316 0.497049 4.566100 0.000000 0.000000 0.000000 -19.002817 -19.963282 1.684141 0.634342 5.095980 14.182599 0.381161 9.042415 -18.264207 0.714070 -5.400361 -15.054054 0.000000 0.000000 0.000000 0.000000 0.000000 0.000000 0.000000 0.000000 0.000000 0.000000 0.000000 0.000000 0.000000 0.000000 0.000000 -1.718678 0.473189 -1.286835 1.216180 0.652954 -4.115800 2.203623 0.405296 -3.546281 -18.724153 -11.971565 -9.650459 18.834308 -17.744415 18.977394 7.301849 -8.016242 11.222786 0.000000 0.000000 0.000000 -2.853454 1.427951 -21.734024 7.966568 -13.498587 0.944351 -5.026065 24.280971 -22.498460 0.000000 0.000000 0.000000 -7.125000 0.000000 0.000000 -32.941062 49.401360 3.964972 0.000000 0.000000 0.000000 -3.233767 10.712799 30.855830 -14.163322 -22.967713 -2.891575 2.957517 16.282670 -11.751528 0.000000 0.000000 0.000000 7.125000 0.000000 0.000000 20.752656 18.566780 14.012375
0.363074 17.459307 0.551352 -0.982852 0.647908 4.522682 0.000000 0.000000 0.000000 -18.923111 -19.990689 1.599311 0.646050 5.141907 14.313649 0.365907 9.038605 -18.082935 0.821416 -5.782964 -16.156062 0.000000 0.000000 0.000000 0.000000 0.000000 0.000000 0.000000 0.000000 0.000000 0.000000 0.000000 0.000000 0.000000 0.000000 0.000000 -1.650656 0.489592 -1.427174 1.236864 0.677401 -3.965688 2.187840 0.411833 -3.311662 -18.874339 -12.089706 -9.886715 18.931905 -17.909237 19.159328 7.325965 -8.075925 11.402757 0.000000 0.000000 0.000000 -2.875130 1.126304 -21.938355 7.821234 -13.262568 0.910624 -5.104217 24.921034 -21.933863 0.000000 0.000000 0.000000 -7.125000 0.000000 0.000000 -32.671599 48.910171 3.494134 0.000000 0.000000 0.000000 -3.974393 10.222542 33.256223 -14.493482 -23.435700 -3.021589 3.487605 16.057905 -11.644865 0.000000 0.000000 0.000000 7.125000 0.000000 0.000000 21.114252 18.668589 14.242694
0.362998 17.460875 0.536006 -0.938320 0.681193 4.509235 0.000000 0.000000 0.000000 -18.921241 -19.832491 1.436269 0.649259 5.154309 14.349323 0.365832 8.892651 -17.933406 0.853837 -5.892769 -16.473725 0.000000 0.000000 0.000000 0.000000 0.000000 0.000000 0.000000 0.000000 0.000000 0.000000 0.000000 0.000000 0.000000 0.000000 0.000000 -1.748361 0.553322 -1.504099 1.188953 0.761698 -3.873816 2.193048 0.453799 -3.178118 -19.000077 -12.197867 -9.833271 19.115396 -18.089622 19.077305 7.379966 -8.155852 11.439594 0.000000 0.000000 0.000000 -2.501835 1.228030 -25.166424 8.341972 -14.105564 1.033996 -6.023466 22.088001 -23.163129 0.000000 0.000000 0.000000 -7.125000 0.000000 0.000000 -34.222848 49.808975 4.534188 0.000000 0.000000 0.000000 -5.198952 10.207938 38.804343 -16.510112 -26.205565 -3.869509 3.496383 13.089306 -10.714688 0.000000 0.000000 0.000000 7.125000 0.000000 0.000000 21.244042 19.537609 13.896533
0.362694 17.459233 0.520243 -0.863594 0.797600 4.400080 0.000000 0.000000 0.000000 -18.972133 -19.645115 1.367382 0.654586 5.175081 14.408600 0.382852 8.565845 -17.805267 0.849364 -5.877996 -16.430836 0.000000 0.000000 0.000000 0.000000 0.000000 0.000000 0.000000 0.000000 0.000000 0.000000 0.000000 0.000000 0.000000 0.000000 0.000000 -1.984936 0.448058 -1.567217 1.223228 0.621825 -3.699855 2.364236 0.387085 -2.958876 -18.970450 -12.174742 -9.762248 19.224278 -18.051078 18.803833 7.418653 -8.136111 11.325645 0.000000 0.000000 0.000000 -0.958583 1.882810 -36.806068 10.538006 -17.575522 1.634598 -8.649988 12.214156 -25.734775 0.000000 0.000000 0.000000 -7.125000 0.000000 0.000000 -38.248349 51.501858 6.987516 0.000000 0.000000 0.000000 -7.809195 9.689487 49.275575 -21.547898 -32.456227 -6.344235 1.440643 10.606827 -10.459021 0.000000 0.000000 0.000000 7.125000 0.000000 0.000000 19.907464 19.770952 12.787819
0.367357 17.458249 0.480241 -1.010981 0.678749 4.338866 0.000000 0.000000 0.000000 -18.727741 -19.243213 0.819981 0.695179 5.329781 14.851631 0.419906 8.017400 -17.708330 0.734422 -5.474972 -15.268469 0.000000 0.000000 0.000000 0.000000 0.000000 0.000000 0.000000 0.000000 0.000000 0.000000 0.000000 0.000000 0.000000 0.000000 0.000000 -1.529190 0.512332 -1.463235 1.032411 0.703167 -3.591820 1.910110 0.410158 -2.900248 -19.111390 -12.226560 -9.664640 19.679316 -18.258032 18.874622 7.587402 -8.209960 11.454311 0.000000 0.000000 0.000000 2.139815 1.393418 -52.192472 14.291939 -23.148566 2.943095 -7.874790 3.893755 -25.447396 0.000000 0.000000 0.000000 -7.125000 0.000000 0.000000 -37.366595 51.398920 6.679276 0.000000 0.000000 0.000000 -11.028097 7.114523 61.983742 -30.875216 -41.617536 -11.992043 -0.091900 6.115729 -10.647289 0.000000 0.000000 0.000000 7.125000 0.000000 0.000000 18.853357 19.578797 12.112776
